<mxfile host="app.diagrams.net" modified="2020-06-18T13:27:51.443Z" agent="5.0 (Macintosh; Intel Mac OS X 10_15_4) AppleWebKit/537.36 (KHTML, like Gecko) Chrome/83.0.4103.97 Safari/537.36" etag="u0viLoeHuxPbYdyEeAnd" version="13.2.6" type="github">
  <diagram id="B9lOtrirbngyGTcZE4m1" name="Page-1">
    <mxGraphModel dx="1172" dy="682" grid="1" gridSize="10" guides="1" tooltips="1" connect="1" arrows="1" fold="1" page="1" pageScale="1" pageWidth="850" pageHeight="1100" math="0" shadow="0">
      <root>
        <mxCell id="0" />
        <mxCell id="1" parent="0" />
        <mxCell id="9Mfv4na3mFFrGlOWOb3b-18" value="Collaboration Platform(s)" style="rounded=1;whiteSpace=wrap;html=1;align=center;fillColor=#e1d5e7;strokeColor=#9673a6;verticalAlign=top;" parent="1" vertex="1">
          <mxGeometry x="1130" y="80" width="340" height="260" as="geometry" />
        </mxCell>
        <mxCell id="esYa-NTaWCEVvL0tWDTw-10" value="Endpoint Posture Collection" style="edgeStyle=orthogonalEdgeStyle;rounded=0;orthogonalLoop=1;jettySize=auto;html=1;exitX=0.8;exitY=1.017;exitDx=0;exitDy=0;exitPerimeter=0;dashed=1;" parent="1" source="esYa-NTaWCEVvL0tWDTw-48" edge="1">
          <mxGeometry relative="1" as="geometry">
            <mxPoint x="200" y="170" as="sourcePoint" />
            <mxPoint x="220" y="429" as="targetPoint" />
          </mxGeometry>
        </mxCell>
        <mxCell id="esYa-NTaWCEVvL0tWDTw-71" value="Posture&lt;br&gt;Attributes" style="edgeStyle=orthogonalEdgeStyle;rounded=0;orthogonalLoop=1;jettySize=auto;html=1;entryX=0.25;entryY=1;entryDx=0;entryDy=0;startArrow=none;startFill=0;endArrow=classicThin;endFill=1;exitX=0.5;exitY=0;exitDx=0;exitDy=0;" parent="1" source="esYa-NTaWCEVvL0tWDTw-2" target="esYa-NTaWCEVvL0tWDTw-48" edge="1">
          <mxGeometry relative="1" as="geometry">
            <mxPoint x="430" y="370" as="sourcePoint" />
          </mxGeometry>
        </mxCell>
        <mxCell id="AGeJiFLoQ81j-lUDVO3M-9" style="edgeStyle=orthogonalEdgeStyle;rounded=0;orthogonalLoop=1;jettySize=auto;html=1;exitX=0.25;exitY=1;exitDx=0;exitDy=0;entryX=0.037;entryY=0;entryDx=0;entryDy=0;entryPerimeter=0;startArrow=classic;startFill=1;strokeColor=#000000;endArrow=none;endFill=0;" parent="1" source="esYa-NTaWCEVvL0tWDTw-2" target="esYa-NTaWCEVvL0tWDTw-3" edge="1">
          <mxGeometry relative="1" as="geometry">
            <Array as="points">
              <mxPoint x="58" y="405" />
            </Array>
          </mxGeometry>
        </mxCell>
        <mxCell id="esYa-NTaWCEVvL0tWDTw-2" value="Posture Attribute Repository" style="rounded=1;whiteSpace=wrap;html=1;fillColor=#dae8fc;strokeColor=#6c8ebf;" parent="1" vertex="1">
          <mxGeometry x="30" y="300" width="110" height="60" as="geometry" />
        </mxCell>
        <mxCell id="esYa-NTaWCEVvL0tWDTw-3" value="&amp;nbsp; &amp;nbsp; &amp;nbsp; &amp;nbsp; &amp;nbsp; &amp;nbsp; &amp;nbsp; &amp;nbsp; Integration Service (ie. Open DXL)" style="rounded=1;whiteSpace=wrap;html=1;align=left;fillColor=#d5e8d4;strokeColor=#82b366;" parent="1" vertex="1">
          <mxGeometry x="20" y="430" width="1000" height="140" as="geometry" />
        </mxCell>
        <mxCell id="AGeJiFLoQ81j-lUDVO3M-10" value="Threat Intelligence" style="edgeStyle=orthogonalEdgeStyle;rounded=0;orthogonalLoop=1;jettySize=auto;html=1;exitX=0;exitY=0.75;exitDx=0;exitDy=0;entryX=0.75;entryY=0;entryDx=0;entryDy=0;startArrow=none;startFill=0;endArrow=open;endFill=0;strokeColor=#3333FF;" parent="1" source="esYa-NTaWCEVvL0tWDTw-32" target="esYa-NTaWCEVvL0tWDTw-47" edge="1">
          <mxGeometry x="0.2903" relative="1" as="geometry">
            <mxPoint as="offset" />
          </mxGeometry>
        </mxCell>
        <mxCell id="esYa-NTaWCEVvL0tWDTw-32" value="Threat Intelligence Collaboration" style="rounded=1;whiteSpace=wrap;html=1;fillColor=#e1d5e7;strokeColor=#9673a6;" parent="1" vertex="1">
          <mxGeometry x="1250" y="115" width="100" height="90" as="geometry" />
        </mxCell>
        <mxCell id="esYa-NTaWCEVvL0tWDTw-33" value="Security Data Fabric (ie. STIX Shifter Module)" style="rounded=1;whiteSpace=wrap;html=1;fillColor=#d5e8d4;strokeColor=#82b366;" parent="1" vertex="1">
          <mxGeometry x="440" y="450" width="560" height="100" as="geometry" />
        </mxCell>
        <mxCell id="esYa-NTaWCEVvL0tWDTw-48" value="VA&lt;br&gt;(SACM Orchestrator)" style="rounded=1;whiteSpace=wrap;html=1;fillColor=#fff2cc;strokeColor=#d6b656;gradientColor=#A9C4EB;" parent="1" vertex="1">
          <mxGeometry x="20" y="130" width="250" height="60" as="geometry" />
        </mxCell>
        <mxCell id="vWFHUr5tTDaXBQ2kiWTk-8" value="Posture Collection Service (External)" style="rounded=1;whiteSpace=wrap;html=1;fillColor=#dae8fc;strokeColor=#6c8ebf;" parent="1" vertex="1">
          <mxGeometry x="630" y="770.0033333333333" width="148.42" height="55" as="geometry" />
        </mxCell>
        <mxCell id="vWFHUr5tTDaXBQ2kiWTk-9" value="Posture Data" style="edgeStyle=orthogonalEdgeStyle;rounded=0;orthogonalLoop=1;jettySize=auto;html=1;entryX=0;entryY=0.5;entryDx=0;entryDy=0;exitX=1;exitY=0.25;exitDx=0;exitDy=0;" parent="1" source="esYa-NTaWCEVvL0tWDTw-6" target="vWFHUr5tTDaXBQ2kiWTk-8" edge="1">
          <mxGeometry relative="1" as="geometry">
            <mxPoint x="191" y="579.02" as="targetPoint" />
            <Array as="points" />
            <mxPoint x="570" y="850" as="sourcePoint" />
          </mxGeometry>
        </mxCell>
        <mxCell id="vWFHUr5tTDaXBQ2kiWTk-10" value="Perform Collection" style="edgeStyle=orthogonalEdgeStyle;rounded=0;orthogonalLoop=1;jettySize=auto;html=1;entryX=0.209;entryY=0.009;entryDx=0;entryDy=0;entryPerimeter=0;exitX=0.642;exitY=1.014;exitDx=0;exitDy=0;exitPerimeter=0;dashed=1;" parent="1" source="esYa-NTaWCEVvL0tWDTw-3" target="vWFHUr5tTDaXBQ2kiWTk-8" edge="1">
          <mxGeometry relative="1" as="geometry">
            <mxPoint x="670" y="590" as="sourcePoint" />
            <mxPoint x="84.09999999999991" y="779.01" as="targetPoint" />
          </mxGeometry>
        </mxCell>
        <mxCell id="vWFHUr5tTDaXBQ2kiWTk-11" value="Posture Data" style="edgeStyle=orthogonalEdgeStyle;rounded=0;orthogonalLoop=1;jettySize=auto;html=1;entryX=0.729;entryY=0.993;entryDx=0;entryDy=0;entryPerimeter=0;" parent="1" target="esYa-NTaWCEVvL0tWDTw-3" edge="1">
          <mxGeometry relative="1" as="geometry">
            <mxPoint x="191" y="579.02" as="targetPoint" />
            <Array as="points" />
            <mxPoint x="749" y="770" as="sourcePoint" />
          </mxGeometry>
        </mxCell>
        <mxCell id="esYa-NTaWCEVvL0tWDTw-49" value="Sense-Making Analytics Framework" style="rounded=1;whiteSpace=wrap;html=1;fillColor=#f8cecc;strokeColor=#b85450;" parent="1" vertex="1">
          <mxGeometry x="440" y="130" width="280" height="60" as="geometry" />
        </mxCell>
        <mxCell id="9Mfv4na3mFFrGlOWOb3b-23" value="Detection Analytics" style="edgeStyle=orthogonalEdgeStyle;rounded=0;orthogonalLoop=1;jettySize=auto;html=1;exitX=0;exitY=0.25;exitDx=0;exitDy=0;entryX=0.75;entryY=1;entryDx=0;entryDy=0;startArrow=none;startFill=0;endArrow=classic;endFill=1;strokeColor=#3333FF;" parent="1" source="vWFHUr5tTDaXBQ2kiWTk-13" target="esYa-NTaWCEVvL0tWDTw-49" edge="1">
          <mxGeometry x="0.435" relative="1" as="geometry">
            <mxPoint as="offset" />
            <Array as="points">
              <mxPoint x="650" y="248" />
            </Array>
          </mxGeometry>
        </mxCell>
        <mxCell id="9Mfv4na3mFFrGlOWOb3b-24" value="Detection Analytics" style="edgeStyle=orthogonalEdgeStyle;rounded=0;orthogonalLoop=1;jettySize=auto;html=1;exitX=0;exitY=0.75;exitDx=0;exitDy=0;entryX=1;entryY=0.5;entryDx=0;entryDy=0;startArrow=none;startFill=0;endArrow=classic;endFill=1;strokeColor=#3333FF;" parent="1" source="vWFHUr5tTDaXBQ2kiWTk-13" target="vWFHUr5tTDaXBQ2kiWTk-35" edge="1">
          <mxGeometry x="0.2325" relative="1" as="geometry">
            <Array as="points">
              <mxPoint x="1080" y="293" />
              <mxPoint x="1080" y="800" />
            </Array>
            <mxPoint as="offset" />
          </mxGeometry>
        </mxCell>
        <mxCell id="vWFHUr5tTDaXBQ2kiWTk-13" value="Detection Analytics Collaboration" style="rounded=1;whiteSpace=wrap;html=1;fillColor=#e1d5e7;strokeColor=#9673a6;" parent="1" vertex="1">
          <mxGeometry x="1150" y="225" width="100" height="90" as="geometry" />
        </mxCell>
        <mxCell id="esYa-NTaWCEVvL0tWDTw-58" value="Query/Response" style="edgeStyle=orthogonalEdgeStyle;rounded=0;orthogonalLoop=1;jettySize=auto;html=1;entryX=0.125;entryY=1.017;entryDx=0;entryDy=0;startArrow=classicThin;startFill=1;entryPerimeter=0;" parent="1" target="esYa-NTaWCEVvL0tWDTw-49" edge="1">
          <mxGeometry relative="1" as="geometry">
            <mxPoint x="554.25" y="203" as="targetPoint" />
            <mxPoint x="475" y="450" as="sourcePoint" />
          </mxGeometry>
        </mxCell>
        <mxCell id="vWFHUr5tTDaXBQ2kiWTk-16" value="Query/Response" style="edgeStyle=orthogonalEdgeStyle;rounded=0;orthogonalLoop=1;jettySize=auto;html=1;entryX=0.5;entryY=1;entryDx=0;entryDy=0;startArrow=classicThin;startFill=1;" parent="1" target="esYa-NTaWCEVvL0tWDTw-47" edge="1">
          <mxGeometry relative="1" as="geometry">
            <mxPoint x="647.5" y="200" as="targetPoint" />
            <mxPoint x="890" y="450" as="sourcePoint" />
          </mxGeometry>
        </mxCell>
        <mxCell id="vWFHUr5tTDaXBQ2kiWTk-17" value="Detection Findings&lt;br&gt;(Alerts)" style="edgeStyle=orthogonalEdgeStyle;rounded=0;orthogonalLoop=1;jettySize=auto;html=1;" parent="1" edge="1">
          <mxGeometry relative="1" as="geometry">
            <mxPoint x="592" y="430" as="sourcePoint" />
            <mxPoint x="592" y="191" as="targetPoint" />
          </mxGeometry>
        </mxCell>
        <mxCell id="vWFHUr5tTDaXBQ2kiWTk-18" value="Refined Findings&lt;br&gt;(Alerts)" style="endArrow=classic;html=1;exitX=0.904;exitY=1;exitDx=0;exitDy=0;exitPerimeter=0;" parent="1" source="esYa-NTaWCEVvL0tWDTw-49" edge="1">
          <mxGeometry width="50" height="50" relative="1" as="geometry">
            <mxPoint x="420" y="380" as="sourcePoint" />
            <mxPoint x="693" y="428" as="targetPoint" />
          </mxGeometry>
        </mxCell>
        <mxCell id="vWFHUr5tTDaXBQ2kiWTk-27" value="Response Actions" style="edgeStyle=orthogonalEdgeStyle;rounded=0;orthogonalLoop=1;jettySize=auto;html=1;entryX=0.979;entryY=0.993;entryDx=0;entryDy=0;startArrow=classicThin;startFill=1;exitX=0;exitY=0.75;exitDx=0;exitDy=0;dashed=1;entryPerimeter=0;" parent="1" source="vWFHUr5tTDaXBQ2kiWTk-28" target="esYa-NTaWCEVvL0tWDTw-3" edge="1">
          <mxGeometry x="0.2756" relative="1" as="geometry">
            <mxPoint x="1210" y="710" as="sourcePoint" />
            <mxPoint as="offset" />
          </mxGeometry>
        </mxCell>
        <mxCell id="vWFHUr5tTDaXBQ2kiWTk-34" value="Playbooks" style="edgeStyle=orthogonalEdgeStyle;rounded=0;orthogonalLoop=1;jettySize=auto;html=1;exitX=1;exitY=0.5;exitDx=0;exitDy=0;entryX=0.5;entryY=1;entryDx=0;entryDy=0;startArrow=classicThin;startFill=1;strokeColor=#3333FF;" parent="1" source="vWFHUr5tTDaXBQ2kiWTk-19" target="vWFHUr5tTDaXBQ2kiWTk-33" edge="1">
          <mxGeometry relative="1" as="geometry" />
        </mxCell>
        <mxCell id="vWFHUr5tTDaXBQ2kiWTk-20" value="Detection Findings&lt;br&gt;(Alerts)" style="endArrow=classic;html=1;entryX=0;entryY=0.5;entryDx=0;entryDy=0;exitX=1;exitY=0.5;exitDx=0;exitDy=0;" parent="1" source="esYa-NTaWCEVvL0tWDTw-3" target="vWFHUr5tTDaXBQ2kiWTk-19" edge="1">
          <mxGeometry width="50" height="50" relative="1" as="geometry">
            <mxPoint x="880" y="490" as="sourcePoint" />
            <mxPoint x="930" y="440" as="targetPoint" />
          </mxGeometry>
        </mxCell>
        <mxCell id="vWFHUr5tTDaXBQ2kiWTk-21" value="Novel Detection Analytics" style="endArrow=classic;html=1;entryX=0;entryY=0.5;entryDx=0;entryDy=0;exitX=1;exitY=0.25;exitDx=0;exitDy=0;strokeColor=#3333FF;" parent="1" source="esYa-NTaWCEVvL0tWDTw-47" target="vWFHUr5tTDaXBQ2kiWTk-13" edge="1">
          <mxGeometry width="50" height="50" relative="1" as="geometry">
            <mxPoint x="740" y="360" as="sourcePoint" />
            <mxPoint x="790" y="310" as="targetPoint" />
          </mxGeometry>
        </mxCell>
        <mxCell id="vWFHUr5tTDaXBQ2kiWTk-22" value="" style="endArrow=classic;html=1;entryX=1;entryY=0.5;entryDx=0;entryDy=0;exitX=0;exitY=0.5;exitDx=0;exitDy=0;strokeColor=#3333FF;" parent="1" source="esYa-NTaWCEVvL0tWDTw-32" target="esYa-NTaWCEVvL0tWDTw-49" edge="1">
          <mxGeometry width="50" height="50" relative="1" as="geometry">
            <mxPoint x="740" y="360" as="sourcePoint" />
            <mxPoint x="790" y="310" as="targetPoint" />
          </mxGeometry>
        </mxCell>
        <mxCell id="vWFHUr5tTDaXBQ2kiWTk-25" value="" style="endArrow=classic;html=1;entryX=0.75;entryY=0;entryDx=0;entryDy=0;exitX=0.5;exitY=1;exitDx=0;exitDy=0;strokeColor=#3333FF;startArrow=classic;startFill=1;" parent="1" source="esYa-NTaWCEVvL0tWDTw-32" target="vWFHUr5tTDaXBQ2kiWTk-19" edge="1">
          <mxGeometry width="50" height="50" relative="1" as="geometry">
            <mxPoint x="880" y="440" as="sourcePoint" />
            <mxPoint x="930" y="390" as="targetPoint" />
          </mxGeometry>
        </mxCell>
        <mxCell id="vWFHUr5tTDaXBQ2kiWTk-26" value="" style="endArrow=classic;html=1;entryX=0.25;entryY=0;entryDx=0;entryDy=0;exitX=0.5;exitY=1;exitDx=0;exitDy=0;startArrow=classicThin;startFill=1;strokeColor=#3333FF;" parent="1" source="vWFHUr5tTDaXBQ2kiWTk-13" target="vWFHUr5tTDaXBQ2kiWTk-19" edge="1">
          <mxGeometry width="50" height="50" relative="1" as="geometry">
            <mxPoint x="880" y="440" as="sourcePoint" />
            <mxPoint x="930" y="390" as="targetPoint" />
          </mxGeometry>
        </mxCell>
        <mxCell id="vWFHUr5tTDaXBQ2kiWTk-29" value="Other Actuators" style="rounded=1;whiteSpace=wrap;html=1;fillColor=#f8cecc;strokeColor=#b85450;" parent="1" vertex="1">
          <mxGeometry x="1150" y="950" width="200" height="55" as="geometry" />
        </mxCell>
        <mxCell id="vWFHUr5tTDaXBQ2kiWTk-30" value="Response Actions" style="endArrow=classic;startArrow=classic;html=1;entryX=0.5;entryY=1;entryDx=0;entryDy=0;exitX=0.5;exitY=0;exitDx=0;exitDy=0;dashed=1;" parent="1" source="vWFHUr5tTDaXBQ2kiWTk-29" target="vWFHUr5tTDaXBQ2kiWTk-28" edge="1">
          <mxGeometry width="50" height="50" relative="1" as="geometry">
            <mxPoint x="780" y="870" as="sourcePoint" />
            <mxPoint x="830" y="820" as="targetPoint" />
          </mxGeometry>
        </mxCell>
        <mxCell id="vWFHUr5tTDaXBQ2kiWTk-31" value="Playbook /&lt;br&gt;&amp;nbsp;COA Selection" style="endArrow=classic;html=1;entryX=0.25;entryY=0;entryDx=0;entryDy=0;exitX=0.25;exitY=1;exitDx=0;exitDy=0;strokeColor=#3333FF;" parent="1" source="vWFHUr5tTDaXBQ2kiWTk-19" target="vWFHUr5tTDaXBQ2kiWTk-28" edge="1">
          <mxGeometry x="0.0833" width="50" height="50" relative="1" as="geometry">
            <mxPoint x="960" y="720" as="sourcePoint" />
            <mxPoint x="1010" y="670" as="targetPoint" />
            <mxPoint as="offset" />
          </mxGeometry>
        </mxCell>
        <mxCell id="vWFHUr5tTDaXBQ2kiWTk-33" value="Operational&lt;br&gt;Playbooks&lt;br&gt;Collaboration" style="rounded=1;whiteSpace=wrap;html=1;fillColor=#e1d5e7;strokeColor=#9673a6;" parent="1" vertex="1">
          <mxGeometry x="1350" y="225" width="100" height="90" as="geometry" />
        </mxCell>
        <mxCell id="AGeJiFLoQ81j-lUDVO3M-1" value="Findings (Alerts)" style="edgeStyle=orthogonalEdgeStyle;rounded=0;orthogonalLoop=1;jettySize=auto;html=1;exitX=0.75;exitY=0;exitDx=0;exitDy=0;entryX=0.921;entryY=1.007;entryDx=0;entryDy=0;entryPerimeter=0;strokeColor=#000000;" parent="1" source="vWFHUr5tTDaXBQ2kiWTk-35" target="esYa-NTaWCEVvL0tWDTw-3" edge="1">
          <mxGeometry relative="1" as="geometry" />
        </mxCell>
        <mxCell id="vWFHUr5tTDaXBQ2kiWTk-35" value="Telemetry Ingestion / Sense-Making (SIEM)" style="rounded=1;whiteSpace=wrap;html=1;fillColor=#fff2cc;strokeColor=#d6b656;" parent="1" vertex="1">
          <mxGeometry x="820" y="770" width="160" height="60" as="geometry" />
        </mxCell>
        <mxCell id="vWFHUr5tTDaXBQ2kiWTk-36" value="Query/Response" style="edgeStyle=orthogonalEdgeStyle;rounded=0;orthogonalLoop=1;jettySize=auto;html=1;entryX=0.75;entryY=1;entryDx=0;entryDy=0;startArrow=classicThin;startFill=1;exitX=0.25;exitY=0;exitDx=0;exitDy=0;" parent="1" source="vWFHUr5tTDaXBQ2kiWTk-35" target="esYa-NTaWCEVvL0tWDTw-33" edge="1">
          <mxGeometry x="-0.2727" relative="1" as="geometry">
            <mxPoint x="889.5" y="550" as="targetPoint" />
            <mxPoint x="889.5" y="700" as="sourcePoint" />
            <mxPoint as="offset" />
          </mxGeometry>
        </mxCell>
        <mxCell id="vWFHUr5tTDaXBQ2kiWTk-37" value="" style="shape=cylinder;whiteSpace=wrap;html=1;boundedLbl=1;backgroundOutline=1;align=left;movable=0;resizable=0;rotatable=0;deletable=0;editable=0;connectable=0;fillColor=none;strokeColor=none;" parent="1" vertex="1">
          <mxGeometry x="760" y="970" width="60" height="80" as="geometry" />
        </mxCell>
        <mxCell id="9Mfv4na3mFFrGlOWOb3b-7" style="edgeStyle=orthogonalEdgeStyle;rounded=0;orthogonalLoop=1;jettySize=auto;html=1;exitX=0.5;exitY=0;exitDx=0;exitDy=0;entryX=0.25;entryY=1;entryDx=0;entryDy=0;startArrow=none;startFill=0;" parent="1" source="vWFHUr5tTDaXBQ2kiWTk-38" target="vWFHUr5tTDaXBQ2kiWTk-35" edge="1">
          <mxGeometry relative="1" as="geometry" />
        </mxCell>
        <mxCell id="vWFHUr5tTDaXBQ2kiWTk-38" value="Logs" style="shape=cylinder;whiteSpace=wrap;html=1;boundedLbl=1;backgroundOutline=1;align=center;" parent="1" vertex="1">
          <mxGeometry x="790" y="910" width="60" height="80" as="geometry" />
        </mxCell>
        <mxCell id="9Mfv4na3mFFrGlOWOb3b-8" style="edgeStyle=orthogonalEdgeStyle;rounded=0;orthogonalLoop=1;jettySize=auto;html=1;exitX=0.5;exitY=0;exitDx=0;exitDy=0;entryX=0.5;entryY=1;entryDx=0;entryDy=0;startArrow=none;startFill=0;" parent="1" source="9Mfv4na3mFFrGlOWOb3b-1" target="vWFHUr5tTDaXBQ2kiWTk-35" edge="1">
          <mxGeometry relative="1" as="geometry" />
        </mxCell>
        <mxCell id="9Mfv4na3mFFrGlOWOb3b-1" value="Flows" style="shape=cylinder;whiteSpace=wrap;html=1;boundedLbl=1;backgroundOutline=1;align=center;" parent="1" vertex="1">
          <mxGeometry x="870" y="910" width="60" height="80" as="geometry" />
        </mxCell>
        <mxCell id="9Mfv4na3mFFrGlOWOb3b-9" style="edgeStyle=orthogonalEdgeStyle;rounded=0;orthogonalLoop=1;jettySize=auto;html=1;exitX=0.5;exitY=0;exitDx=0;exitDy=0;entryX=0.75;entryY=1;entryDx=0;entryDy=0;startArrow=none;startFill=0;" parent="1" source="9Mfv4na3mFFrGlOWOb3b-3" target="vWFHUr5tTDaXBQ2kiWTk-35" edge="1">
          <mxGeometry relative="1" as="geometry" />
        </mxCell>
        <mxCell id="9Mfv4na3mFFrGlOWOb3b-3" value="Alerts" style="shape=cylinder;whiteSpace=wrap;html=1;boundedLbl=1;backgroundOutline=1;align=center;" parent="1" vertex="1">
          <mxGeometry x="950" y="910" width="60" height="80" as="geometry" />
        </mxCell>
        <mxCell id="9Mfv4na3mFFrGlOWOb3b-10" value="Information Sharing" style="rounded=1;whiteSpace=wrap;html=1;align=center;fillColor=#e1d5e7;strokeColor=#9673a6;" parent="1" vertex="1">
          <mxGeometry x="20" y="20" width="120" height="30" as="geometry" />
        </mxCell>
        <mxCell id="9Mfv4na3mFFrGlOWOb3b-11" value="IACD Component" style="rounded=1;whiteSpace=wrap;html=1;align=center;fillColor=#f8cecc;strokeColor=#b85450;" parent="1" vertex="1">
          <mxGeometry x="160" y="20" width="110" height="30" as="geometry" />
        </mxCell>
        <mxCell id="9Mfv4na3mFFrGlOWOb3b-12" value="Industry Function" style="rounded=1;whiteSpace=wrap;html=1;align=center;fillColor=#fff2cc;strokeColor=#d6b656;" parent="1" vertex="1">
          <mxGeometry x="290" y="20" width="110" height="30" as="geometry" />
        </mxCell>
        <mxCell id="9Mfv4na3mFFrGlOWOb3b-13" value="SACM Component" style="rounded=1;whiteSpace=wrap;html=1;align=center;fillColor=#dae8fc;strokeColor=#6c8ebf;" parent="1" vertex="1">
          <mxGeometry x="420" y="20" width="120" height="30" as="geometry" />
        </mxCell>
        <mxCell id="9Mfv4na3mFFrGlOWOb3b-14" value="OCA Component" style="rounded=1;whiteSpace=wrap;html=1;align=center;fillColor=#d5e8d4;strokeColor=#82b366;" parent="1" vertex="1">
          <mxGeometry x="560" y="20" width="120" height="30" as="geometry" />
        </mxCell>
        <mxCell id="9Mfv4na3mFFrGlOWOb3b-16" style="edgeStyle=orthogonalEdgeStyle;rounded=0;orthogonalLoop=1;jettySize=auto;html=1;exitX=0.5;exitY=0;exitDx=0;exitDy=0;exitPerimeter=0;entryX=0.75;entryY=1;entryDx=0;entryDy=0;startArrow=none;startFill=0;" parent="1" source="9Mfv4na3mFFrGlOWOb3b-15" target="vWFHUr5tTDaXBQ2kiWTk-19" edge="1">
          <mxGeometry relative="1" as="geometry" />
        </mxCell>
        <mxCell id="AGeJiFLoQ81j-lUDVO3M-6" style="edgeStyle=orthogonalEdgeStyle;rounded=0;orthogonalLoop=1;jettySize=auto;html=1;exitX=1;exitY=0.3333333333333333;exitDx=0;exitDy=0;exitPerimeter=0;entryX=0.5;entryY=1;entryDx=0;entryDy=0;strokeColor=#000000;startArrow=classic;startFill=1;" parent="1" source="9Mfv4na3mFFrGlOWOb3b-15" target="AGeJiFLoQ81j-lUDVO3M-2" edge="1">
          <mxGeometry relative="1" as="geometry" />
        </mxCell>
        <mxCell id="AGeJiFLoQ81j-lUDVO3M-11" value="Query / Response" style="edgeStyle=orthogonalEdgeStyle;rounded=0;orthogonalLoop=1;jettySize=auto;html=1;exitX=0.25;exitY=1;exitDx=0;exitDy=0;entryX=1;entryY=0.75;entryDx=0;entryDy=0;startArrow=classic;startFill=1;endArrow=open;endFill=0;strokeColor=#000000;" parent="1" source="AGeJiFLoQ81j-lUDVO3M-2" target="esYa-NTaWCEVvL0tWDTw-33" edge="1">
          <mxGeometry x="-0.5294" relative="1" as="geometry">
            <Array as="points">
              <mxPoint x="1500" y="610" />
              <mxPoint x="1120" y="610" />
              <mxPoint x="1120" y="525" />
            </Array>
            <mxPoint as="offset" />
          </mxGeometry>
        </mxCell>
        <mxCell id="9Mfv4na3mFFrGlOWOb3b-15" value="Human Decision&lt;br&gt;(Optional)" style="shape=umlActor;verticalLabelPosition=bottom;labelBackgroundColor=#ffffff;verticalAlign=top;html=1;outlineConnect=0;gradientColor=#A9C4EB;align=center;" parent="1" vertex="1">
          <mxGeometry x="1285" y="620" width="30" height="60" as="geometry" />
        </mxCell>
        <mxCell id="9Mfv4na3mFFrGlOWOb3b-21" style="edgeStyle=orthogonalEdgeStyle;rounded=0;orthogonalLoop=1;jettySize=auto;html=1;exitX=0;exitY=0.3333333333333333;exitDx=0;exitDy=0;exitPerimeter=0;entryX=1;entryY=0.5;entryDx=0;entryDy=0;startArrow=classic;startFill=1;" parent="1" source="9Mfv4na3mFFrGlOWOb3b-19" target="9Mfv4na3mFFrGlOWOb3b-18" edge="1">
          <mxGeometry relative="1" as="geometry" />
        </mxCell>
        <mxCell id="9Mfv4na3mFFrGlOWOb3b-19" value="Third Parties" style="shape=umlActor;verticalLabelPosition=bottom;labelBackgroundColor=#ffffff;verticalAlign=top;html=1;outlineConnect=0;gradientColor=#A9C4EB;align=center;" parent="1" vertex="1">
          <mxGeometry x="1530" y="190" width="30" height="60" as="geometry" />
        </mxCell>
        <mxCell id="AGeJiFLoQ81j-lUDVO3M-5" style="edgeStyle=orthogonalEdgeStyle;rounded=0;orthogonalLoop=1;jettySize=auto;html=1;exitX=1;exitY=0.75;exitDx=0;exitDy=0;entryX=0;entryY=0.5;entryDx=0;entryDy=0;strokeColor=#000000;" parent="1" source="vWFHUr5tTDaXBQ2kiWTk-19" target="AGeJiFLoQ81j-lUDVO3M-2" edge="1">
          <mxGeometry relative="1" as="geometry" />
        </mxCell>
        <mxCell id="9Mfv4na3mFFrGlOWOb3b-25" value="Novel Threat Intelligence" style="edgeStyle=orthogonalEdgeStyle;rounded=0;orthogonalLoop=1;jettySize=auto;html=1;exitX=0.25;exitY=0;exitDx=0;exitDy=0;entryX=0;entryY=0.25;entryDx=0;entryDy=0;startArrow=none;startFill=0;endArrow=classic;endFill=1;strokeColor=#3333FF;" parent="1" source="esYa-NTaWCEVvL0tWDTw-47" target="esYa-NTaWCEVvL0tWDTw-32" edge="1">
          <mxGeometry x="0.0254" relative="1" as="geometry">
            <mxPoint as="offset" />
            <Array as="points">
              <mxPoint x="860" y="138" />
            </Array>
          </mxGeometry>
        </mxCell>
        <mxCell id="esYa-NTaWCEVvL0tWDTw-47" value="Threat Hunting" style="rounded=1;whiteSpace=wrap;html=1;fillColor=#fff2cc;strokeColor=#d6b656;" parent="1" vertex="1">
          <mxGeometry x="830" y="255" width="120" height="60" as="geometry" />
        </mxCell>
        <mxCell id="9Mfv4na3mFFrGlOWOb3b-26" value="Content" style="endArrow=none;html=1;strokeColor=#3333FF;" parent="1" edge="1">
          <mxGeometry width="50" height="50" relative="1" as="geometry">
            <mxPoint x="20" y="80" as="sourcePoint" />
            <mxPoint x="140" y="80" as="targetPoint" />
          </mxGeometry>
        </mxCell>
        <mxCell id="9Mfv4na3mFFrGlOWOb3b-27" value="Data" style="endArrow=none;html=1;strokeColor=#000000;" parent="1" edge="1">
          <mxGeometry width="50" height="50" relative="1" as="geometry">
            <mxPoint x="160" y="80" as="sourcePoint" />
            <mxPoint x="270" y="80" as="targetPoint" />
          </mxGeometry>
        </mxCell>
        <mxCell id="9Mfv4na3mFFrGlOWOb3b-28" value="Message" style="endArrow=none;html=1;strokeColor=#000000;dashed=1;" parent="1" edge="1">
          <mxGeometry width="50" height="50" relative="1" as="geometry">
            <mxPoint x="290" y="80" as="sourcePoint" />
            <mxPoint x="400" y="80" as="targetPoint" />
          </mxGeometry>
        </mxCell>
        <mxCell id="AGeJiFLoQ81j-lUDVO3M-2" value="Reporting, Investigation, Dashboarding, Management" style="rounded=1;whiteSpace=wrap;html=1;fillColor=#fff2cc;strokeColor=#d6b656;" parent="1" vertex="1">
          <mxGeometry x="1470" y="500" width="120" height="70" as="geometry" />
        </mxCell>
        <mxCell id="AGeJiFLoQ81j-lUDVO3M-8" value="Query/Response" style="edgeStyle=orthogonalEdgeStyle;rounded=0;orthogonalLoop=1;jettySize=auto;html=1;entryX=0.75;entryY=1;entryDx=0;entryDy=0;startArrow=classicThin;startFill=1;exitX=0;exitY=0.25;exitDx=0;exitDy=0;" parent="1" source="esYa-NTaWCEVvL0tWDTw-33" target="esYa-NTaWCEVvL0tWDTw-2" edge="1">
          <mxGeometry x="0.8192" relative="1" as="geometry">
            <mxPoint x="120" y="210" as="targetPoint" />
            <mxPoint x="120" y="430" as="sourcePoint" />
            <mxPoint as="offset" />
          </mxGeometry>
        </mxCell>
        <mxCell id="esYa-NTaWCEVvL0tWDTw-6" value="&amp;nbsp; &amp;nbsp; Endpoint / VM / Container (&quot;Security Target&quot;)" style="rounded=1;whiteSpace=wrap;html=1;verticalAlign=bottom;align=left;" parent="1" vertex="1">
          <mxGeometry x="30" y="800" width="490" height="100" as="geometry" />
        </mxCell>
        <mxCell id="esYa-NTaWCEVvL0tWDTw-7" value="Posture Collection Service (Embedded version)" style="rounded=1;whiteSpace=wrap;html=1;fillColor=#dae8fc;strokeColor=#6c8ebf;" parent="1" vertex="1">
          <mxGeometry x="40" y="815.8333333333334" width="148.42" height="55" as="geometry" />
        </mxCell>
        <mxCell id="esYa-NTaWCEVvL0tWDTw-39" value="EDR" style="rounded=1;whiteSpace=wrap;html=1;fillColor=#fff2cc;strokeColor=#d6b656;" parent="1" vertex="1">
          <mxGeometry x="200" y="815.8333333333334" width="150" height="55" as="geometry" />
        </mxCell>
        <mxCell id="vWFHUr5tTDaXBQ2kiWTk-3" value="Actuators" style="rounded=1;whiteSpace=wrap;html=1;fillColor=#f8cecc;strokeColor=#b85450;" parent="1" vertex="1">
          <mxGeometry x="360" y="815.8333333333334" width="150" height="55" as="geometry" />
        </mxCell>
        <mxCell id="9Mfv4na3mFFrGlOWOb3b-22" value="Detection Analytics" style="edgeStyle=orthogonalEdgeStyle;rounded=0;orthogonalLoop=1;jettySize=auto;html=1;exitX=0.75;exitY=1;exitDx=0;exitDy=0;entryX=0.25;entryY=1;entryDx=0;entryDy=0;startArrow=classic;startFill=1;strokeColor=#3333FF;endArrow=none;endFill=0;" parent="1" source="esYa-NTaWCEVvL0tWDTw-39" target="vWFHUr5tTDaXBQ2kiWTk-13" edge="1">
          <mxGeometry x="-0.6114" relative="1" as="geometry">
            <Array as="points">
              <mxPoint x="313" y="910" />
              <mxPoint x="1175" y="910" />
            </Array>
            <mxPoint as="offset" />
          </mxGeometry>
        </mxCell>
        <mxCell id="3KCtxqmRmYvS2_7U6dXt-3" value="Detection Findings&lt;br&gt;(Alerts)" style="endArrow=classic;html=1;entryX=0.217;entryY=1.021;entryDx=0;entryDy=0;exitX=0.25;exitY=0;exitDx=0;exitDy=0;entryPerimeter=0;" edge="1" parent="1" source="esYa-NTaWCEVvL0tWDTw-39" target="esYa-NTaWCEVvL0tWDTw-3">
          <mxGeometry width="50" height="50" relative="1" as="geometry">
            <mxPoint x="640" y="580" as="sourcePoint" />
            <mxPoint x="690" y="530" as="targetPoint" />
          </mxGeometry>
        </mxCell>
        <mxCell id="AGeJiFLoQ81j-lUDVO3M-7" value="Query/Response" style="edgeStyle=orthogonalEdgeStyle;rounded=0;orthogonalLoop=1;jettySize=auto;html=1;entryX=0.75;entryY=1;entryDx=0;entryDy=0;startArrow=classicThin;startFill=1;exitX=0.75;exitY=0;exitDx=0;exitDy=0;" parent="1" edge="1" source="esYa-NTaWCEVvL0tWDTw-39">
          <mxGeometry x="-0.2684" y="-57" relative="1" as="geometry">
            <mxPoint x="500" y="550" as="targetPoint" />
            <mxPoint x="500" y="770" as="sourcePoint" />
            <mxPoint x="57" y="-57" as="offset" />
            <Array as="points">
              <mxPoint x="313" y="650" />
              <mxPoint x="500" y="650" />
            </Array>
          </mxGeometry>
        </mxCell>
        <mxCell id="3KCtxqmRmYvS2_7U6dXt-2" value="Posture Data" style="endArrow=classic;html=1;exitX=0.633;exitY=0.021;exitDx=0;exitDy=0;exitPerimeter=0;entryX=0.115;entryY=0.993;entryDx=0;entryDy=0;entryPerimeter=0;" edge="1" parent="1" source="esYa-NTaWCEVvL0tWDTw-7" target="esYa-NTaWCEVvL0tWDTw-3">
          <mxGeometry x="0.3469" width="50" height="50" relative="1" as="geometry">
            <mxPoint x="640" y="580" as="sourcePoint" />
            <mxPoint x="690" y="530" as="targetPoint" />
            <mxPoint as="offset" />
          </mxGeometry>
        </mxCell>
        <mxCell id="esYa-NTaWCEVvL0tWDTw-17" value="Perform Collection" style="edgeStyle=orthogonalEdgeStyle;rounded=0;orthogonalLoop=1;jettySize=auto;html=1;entryX=0.25;entryY=0;entryDx=0;entryDy=0;dashed=1;" parent="1" target="esYa-NTaWCEVvL0tWDTw-7" edge="1">
          <mxGeometry relative="1" as="geometry">
            <mxPoint x="74" y="569" as="sourcePoint" />
          </mxGeometry>
        </mxCell>
        <mxCell id="vWFHUr5tTDaXBQ2kiWTk-7" value="Response Actions" style="endArrow=classic;html=1;dashed=1;entryX=0.607;entryY=0.003;entryDx=0;entryDy=0;entryPerimeter=0;" parent="1" target="vWFHUr5tTDaXBQ2kiWTk-3" edge="1">
          <mxGeometry x="0.2929" width="50" height="50" relative="1" as="geometry">
            <mxPoint x="450" y="572" as="sourcePoint" />
            <mxPoint x="470" y="770" as="targetPoint" />
            <mxPoint as="offset" />
          </mxGeometry>
        </mxCell>
        <mxCell id="vWFHUr5tTDaXBQ2kiWTk-28" value="Response Action Controller" style="rounded=1;whiteSpace=wrap;html=1;fillColor=#f8cecc;strokeColor=#b85450;" parent="1" vertex="1">
          <mxGeometry x="1150" y="810" width="200" height="70" as="geometry" />
        </mxCell>
        <mxCell id="vWFHUr5tTDaXBQ2kiWTk-19" value="Decision Making" style="rounded=1;whiteSpace=wrap;html=1;fillColor=#f8cecc;strokeColor=#b85450;" parent="1" vertex="1">
          <mxGeometry x="1150" y="430" width="200" height="140" as="geometry" />
        </mxCell>
      </root>
    </mxGraphModel>
  </diagram>
</mxfile>
